<?xml version="1.0" encoding="UTF-8" standalone="no"?>
<!-- Created with Inkscape (http://www.inkscape.org/) -->

<svg
   version="1.1"
   id="svg1054"
   width="380"
   height="371"
   viewBox="0 0 380 371"
   sodipodi:docname="MysticTuner-Logo.svg"
   inkscape:version="1.4 (86a8ad7, 2024-10-11)"
   xmlns:inkscape="http://www.inkscape.org/namespaces/inkscape"
   xmlns:sodipodi="http://sodipodi.sourceforge.net/DTD/sodipodi-0.dtd"
   xmlns="http://www.w3.org/2000/svg"
   xmlns:svg="http://www.w3.org/2000/svg">
  <defs
     id="defs1058" />
  <sodipodi:namedview
     id="namedview1056"
     pagecolor="#ffffff"
     bordercolor="#000000"
     borderopacity="0.25"
     inkscape:showpageshadow="2"
     inkscape:pageopacity="0.0"
     inkscape:pagecheckerboard="0"
     inkscape:deskcolor="#d1d1d1"
     showgrid="false"
     inkscape:zoom="2.7681941"
     inkscape:cx="149.19474"
     inkscape:cy="179.90068"
     inkscape:window-width="2560"
     inkscape:window-height="1316"
     inkscape:window-x="646"
     inkscape:window-y="2004"
     inkscape:window-maximized="1"
     inkscape:current-layer="g1060" />
  <g
     inkscape:groupmode="layer"
     inkscape:label="Image"
     id="g1060">
    <circle
       style="display:inline;fill:#393d3c;fill-opacity:1;stroke:#ffffff;stroke-width:30;stroke-linejoin:round;stroke-dasharray:none;stroke-opacity:1;paint-order:stroke fill markers"
       id="path8712"
       cx="194.6987"
       cy="185.69377"
       r="168.16019" />
    <ellipse
       style="display:inline;fill:#64acf3;fill-opacity:1;stroke:#ffffff;stroke-width:0;stroke-linejoin:round;stroke-dasharray:none;stroke-opacity:1;paint-order:stroke fill markers"
       id="path14489"
       cx="194.87517"
       cy="185.76091"
       rx="159.74814"
       ry="160.74565" />
    <path
       style="display:inline;fill:#393d3c;fill-opacity:1;stroke:#ffffff;stroke-width:9.33333;stroke-linejoin:round;stroke-dasharray:none;stroke-opacity:1;paint-order:stroke fill markers"
       d="m 41.362707,114.96665 c 0,0 39.82741,-16.165774 49.942308,25.46787 0,0 10.566455,-32.24124 29.893135,-38.56305 8.66991,-2.709347 17.97201,2.16748 17.43014,12.10175 -0.54187,9.93428 -2.70935,13.72736 -6.2315,15.35297 -3.52216,1.62561 -6.05088,-3.52215 -8.66992,2.70935 -2.61903,6.2315 -5.32838,27.72566 0,32.96373 5.32839,5.23807 14.08861,-2.98028 15.17235,-5.87025 1.08374,-2.88997 1.62561,-21.49416 8.39898,-28.08691 6.77337,-6.59274 11.83082,-3.61246 11.19864,5.87026 -0.63219,9.48271 -6.05088,23.21007 2.07716,24.38412 8.12804,1.17406 11.19864,-12.28237 12.28238,-22.12633 1.08374,-9.84397 7.31524,-17.06889 11.83082,-16.52702 4.51558,0.54186 7.58617,3.70277 2.52872,19.5073 -5.05745,15.80453 -0.72249,18.96543 0.99343,19.59761 1.71592,0.63218 6.95399,-0.18062 21.22322,-32.33155 14.26923,-32.150921 31.87999,-9.93427 27.36441,-6.77336 -4.51558,3.1609 -10.47614,6.14118 -5.41869,12.37268 5.05745,6.2315 7.8571,10.1149 8.94084,14.44986 0,0 7.58618,-0.54187 9.48272,-15.08204 1.89654,-14.54016 2.25779,-11.10832 2.25779,-11.10832 0,0 -9.03116,1.08374 -7.67648,-9.3021 0,0 10.2052,3.61247 15.17234,-17.701068 0,0 1.35468,-4.154333 5.68963,-3.612463 4.33496,0.541869 5.23807,3.883398 4.60589,8.128041 -0.63218,4.24465 -5.32838,10.02459 0.90312,9.66334 6.2315,-0.36125 7.94742,-3.8834 8.30866,4.42527 0.36125,8.30866 -6.77336,5.68963 -10.29552,7.0443 -3.52215,1.35468 -7.0443,0.27094 -6.86368,11.19864 0.18063,10.9277 4.42527,11.28895 9.84397,10.83739 5.41869,-0.45156 11.37926,-2.07717 12.73393,-14.99172 1.35467,-12.91456 5.76191,-23.65992 12.02018,-23.46834 6.25828,0.19158 6.51372,6.57758 4.1509,19.54114 -2.36282,12.96357 0,13.79375 5.30037,14.04919 5.30038,0.25544 5.4281,-5.87511 5.68354,-8.04635 0.25544,-2.17124 0,-15.19867 14.30462,-26.88503 14.30463,-11.686373 31.61067,-3.193 31.29137,11.04776 -0.3193,14.24077 -14.11305,17.24219 -18.39166,11.49479 -0.0639,-0.3193 7.21617,-11.62251 -3.25686,-10.98391 -10.47303,0.6386 -6.83301,18.90254 -2.2351,21.58466 4.59792,2.68212 14.49621,6.0667 25.54398,-5.49195 11.04777,-11.55865 2.80984,-8.04635 8.74881,-9.25969 5.93897,-1.21334 3.5123,8.23793 -8.68495,27.39591 0,0 -12.77199,14.68778 -26.37415,13.28287 -13.60217,-1.40492 -17.17833,-9.32355 -17.88079,-12.89971 0,0 -6.19441,18.77482 -19.47728,18.83868 -13.28286,0.0639 -12.77198,-13.53831 -12.77198,-13.53831 0,0 0.38316,8.62109 -13.41059,16.28429 -13.79375,7.66319 -21.26536,-2.68212 -21.8401,-9.38741 0,0 -2.17124,5.23651 -13.92146,13.8576 -11.75023,8.62109 -23.18116,3.5123 -26.18258,1.02176 -3.00142,-2.49054 -6.76915,-7.59933 -6.76915,-7.59933 0,0 0.12772,6.70529 -5.87512,12.45269 -6.00283,5.74739 -13.66602,1.72421 -13.66602,1.72421 0,0 0.3193,14.24077 -6.25828,25.991 -6.57757,11.75023 -14.56006,13.09129 -17.43376,13.79374 -2.8737,0.70246 -11.75023,-0.38315 -14.87936,-2.49053 0,0 -4.91722,1.72422 -9.13197,1.5965 -4.21476,-0.12772 -13.41059,-2.74598 -22.09554,-2.10738 -8.68495,0.6386 -19.349562,2.74598 -23.500458,9.45127 -4.150896,6.70529 -4.470195,13.34673 3.256857,13.8576 0,0 3.256856,8.36566 -6.322134,15.83727 -9.57899,7.47161 -23.564316,1.85194 -25.352394,-8.62109 -1.788079,-10.47303 -0.51088,-24.20292 12.516547,-33.90963 13.027427,-9.70671 27.970652,-14.56006 62.263442,-16.34814 0,0 0.44701,-9.96215 5.36423,-10.85619 0,0 1.21334,6.64143 7.15231,8.42951 0,0 4.40634,-3.64002 7.85477,0.6386 0,0 11.55865,-2.17124 15.58183,-11.87795 4.02318,-9.70671 2.2351,-14.75164 2.2351,-14.75164 0,0 -1.53264,-2.36282 -3.25686,0.25544 0,0 -0.38316,10.40917 -12.45269,16.34814 -12.06953,5.93897 -17.62534,-7.66319 -16.85902,-11.94181 0,0 -2.93756,12.89971 -14.49621,17.56148 -11.55864,4.66178 -20.11588,-4.66177 -20.75447,-14.56006 -0.6386,-9.89829 2.42667,-25.6717 2.93755,-28.09837 0.51088,-2.42668 2.8737,-8.62109 -0.9579,-8.68495 -3.83159,-0.0639 -6.44985,5.55581 -7.918629,13.8576 -1.468778,8.30179 -1.979658,16.60359 -2.809837,22.92572 -0.830179,6.32213 -0.702459,11.62251 -7.152313,14.68778 -6.449853,3.06528 -15.134805,0.6386 -14.240766,-9.32355 0.89404,-9.96215 3.001417,-17.0506 2.745978,-25.67169 -0.25544,-8.62109 -0.38316,-12.19725 -3.192997,-12.45269 -2.809837,-0.25544 -3.703876,6.70529 -4.406336,16.41201 -0.702459,9.70671 -5.364234,32.24926 -23.245016,45.46827 -17.880782,13.21901 -36.9749031,2.49054 -39.7847402,-10.72847 -2.8098372,-13.21901 5.6196742,-25.79941 15.1348052,-23.94748 0,0 0.191579,6.51372 6.960733,7.79092 6.769153,1.2772 23.755896,1.2772 29.43943,-23.69204 5.683534,-24.96923 -2.043518,-25.67169 -7.982492,-25.67169 -5.938974,0 -13.219007,12.45268 -6.194414,18.9664 -0.12772,0.12772 2.873697,0.9579 4.597916,0.9579 0,0 5.875114,10.72847 -10.15373,17.0506 C 21.967818,176.445 11.877948,157.22316 15.773404,143.11012 19.66886,128.99707 27.03955,119.45561 41.362707,114.96665 Z"
       id="path1702" />
    <path
       style="display:inline;fill:#ffffff;fill-opacity:1;stroke:#ffffff;stroke-width:0;stroke-linejoin:round;stroke-dasharray:none;stroke-opacity:1;paint-order:stroke fill markers"
       d="m 207.53603,148.74318 6.2315,-12.10175 c 0,0 2.52872,-5.68963 6.2315,2.79966 3.70277,8.48929 0,12.91456 -3.34153,15.26266 -3.34153,2.3481 -12.64362,0.99343 -9.12147,-5.96057 z"
       id="path13679" />
    <path
       style="fill:#fefefe;fill-opacity:1;stroke:#ffffff;stroke-width:0;stroke-linejoin:round;stroke-dasharray:none;stroke-opacity:1;paint-order:stroke fill markers"
       d="m 204.28794,47.575651 c 0,0 7.15231,0.09579 7.15231,-8.621091 0,0 -0.28737,8.493372 7.5674,8.493372 0,0 -7.28003,-0.25544 -7.28003,7.567402 0,0 0.76632,-7.439683 -7.43968,-7.439683 z"
       id="path17771-4" />
    <path
       style="fill:#fefefe;fill-opacity:1;stroke:#ffffff;stroke-width:0;stroke-linejoin:round;stroke-dasharray:none;stroke-opacity:1;paint-order:stroke fill markers"
       d="m 158.80026,71.448909 c 0,0 25.20552,0.373423 25.20552,-33.607971 0,0 -1.01273,33.110079 26.6683,33.110079 0,0 -25.65561,-0.995792 -25.65561,29.500333 0,0 2.70061,-29.002441 -26.21821,-29.002441 z"
       id="path17771-7-4" />
    <path
       style="fill:#fefefe;fill-opacity:1;stroke:#ffffff;stroke-width:0;stroke-linejoin:round;stroke-dasharray:none;stroke-opacity:1;paint-order:stroke fill markers"
       d="m 216.27764,89.963763 c 0,0 10.37939,0.152922 10.37939,-13.762895 0,0 -0.41704,13.559002 10.98176,13.559002 0,0 -10.56474,-0.407791 -10.56474,12.08076 0,0 1.11208,-11.876867 -10.79641,-11.876867 z"
       id="path17771-7-2-4" />
    <path
       style="fill:#393d3c;fill-opacity:1;stroke:#ffffff;stroke-width:0;stroke-linejoin:round;stroke-dasharray:none;stroke-opacity:1;paint-order:stroke fill markers"
       d="m 201.09494,46.362313 c 0,0 7.15231,0.09579 7.15231,-8.621091 0,0 -0.28737,8.493372 7.5674,8.493372 0,0 -7.28003,-0.25544 -7.28003,7.567402 0,0 0.76632,-7.439683 -7.43968,-7.439683 z"
       id="path17771" />
    <path
       style="fill:#393d3c;fill-opacity:1;stroke:#ffffff;stroke-width:0;stroke-linejoin:round;stroke-dasharray:none;stroke-opacity:1;paint-order:stroke fill markers"
       d="m 158.03737,68.667932 c 0,0 22.41886,0.36545 22.41886,-32.890404 0,0 -0.90076,32.403143 23.71995,32.403143 0,0 -22.8192,-0.974532 -22.8192,28.870464 0,0 2.40203,-28.383203 -23.31961,-28.383203 z"
       id="path17771-7" />
    <path
       style="fill:#393d3c;fill-opacity:1;stroke:#ffffff;stroke-width:0;stroke-linejoin:round;stroke-dasharray:none;stroke-opacity:1;paint-order:stroke fill markers"
       d="m 211.552,86.834627 c 0,0 10.37939,0.152922 10.37939,-13.762895 0,0 -0.41704,13.559002 10.98176,13.559002 0,0 -10.56474,-0.407791 -10.56474,12.080764 0,0 1.11208,-11.876871 -10.79641,-11.876871 z"
       id="path17771-7-2" />
    <path
       style="fill:#393d3c;fill-opacity:1;stroke:#ffffff;stroke-width:9.33333333;stroke-linejoin:round;stroke-dasharray:none;stroke-opacity:1;paint-order:stroke fill markers"
       d="m 125.67635,251.35271 c 0,0 3.8316,-12.77199 8.55723,-16.47587 4.72564,-3.70387 8.9404,-0.51088 8.04636,7.15232 -0.89404,7.66319 -5.36424,23.88361 0.57474,25.28853 5.93897,1.40492 12.06952,-3.12914 12.8997,-13.72989 0.83018,-10.60074 4.98108,-21.64851 10.85619,-24.39449 5.87512,-2.74598 7.85477,3.76774 4.85336,17.81692 -3.00142,14.04919 1.08562,15.26253 5.68353,15.70955 4.59792,0.44702 8.42951,-4.85336 8.62109,-12.13339 0.19158,-7.28003 3.25686,-18.58324 6.96074,-23.4366 3.70387,-4.85335 8.04635,-2.10738 8.23793,2.5544 0.19158,4.66177 4.78949,4.53405 6.70529,-0.44702 1.9158,-4.98108 15.90113,-12.38883 22.03168,-6.64143 6.13055,5.74739 4.53405,12.06952 3.44844,18.0085 -1.08562,5.93897 -2.10738,12.45269 4.34247,12.26111 6.44985,-0.19158 10.08987,-5.55582 10.40917,-12.96357 0.3193,-7.40775 6.76915,-21.5208 23.69204,-26.75731 16.92288,-5.23652 23.56431,11.04776 21.00992,20.30746 -2.5544,9.25969 -9.57899,18.07236 -28.41768,14.24076 0,0 -2.74597,7.15231 11.04777,6.32213 13.79375,-0.83017 22.60642,-9.45127 25.54398,-20.49903 2.93755,-11.04777 3.95931,-13.60217 3.95931,-13.60217 0,0 -6.32213,0.76632 -5.93897,-6.70529 0.38316,-7.47162 3.8316,-9.89829 8.04635,-11.94181 4.21476,-2.04352 15.96499,-0.51088 22.28712,3.76773 6.32213,4.27862 7.47161,7.3439 3.64002,20.5629 -3.8316,13.21901 4.72563,13.21901 8.94039,11.68637 4.21475,-1.53264 5.49195,-10.47303 9.57899,-8.55723 4.08703,1.9158 2.80983,4.40634 0.12772,13.60217 -2.68212,9.19583 -10.15373,26.50187 -25.6717,25.41625 -15.51796,-1.08562 -11.23935,-21.58466 -9.38741,-30.26961 1.85194,-8.68495 4.40634,-11.55865 -0.9579,-14.36848 l -3.89545,-1.85194 c 0,0 -5.87512,22.22326 -11.81409,33.20716 -5.93898,10.98391 -17.81692,22.60642 -31.73839,22.67028 -13.92147,0.0639 -19.41342,-16.412 -19.41342,-16.412 0,0 -4.08704,13.8576 -13.28287,20.2436 -9.19583,6.38599 -15.7734,-0.44702 -17.3699,-2.61826 -1.5965,-2.17124 -4.08704,-13.15515 -1.40492,-21.5208 2.68212,-8.36565 1.72422,-13.09129 -3.83159,-11.87795 -5.55582,1.21334 -12.19725,5.36424 -9.57899,24.01134 2.61825,18.6471 -3.57616,17.81692 -8.81268,18.9664 -5.23651,1.14948 -10.28145,-1.40492 -9.45127,-11.81409 0,0 -2.55439,7.91863 -12.5804,14.87937 -10.02601,6.96073 -19.22184,-2.61826 -18.39166,-14.11305 0,0 -2.17124,13.21901 -13.60217,19.34956 -11.43093,6.13056 -18.20008,-7.15231 -17.62534,-21.77624 0.57474,-14.62392 3.06527,-23.11729 3.06527,-23.11729 z"
       id="path21184" />
    <path
       style="fill:#ffffff;fill-opacity:1;stroke:#ffffff;stroke-width:0;stroke-linejoin:round;stroke-dasharray:none;stroke-opacity:1;paint-order:stroke fill markers"
       d="m 264.44399,233.28035 c 0,0 2.10738,-7.47162 10.02601,-6.19442 7.91864,1.2772 2.8737,10.40917 -0.6386,11.81409 -3.51229,1.40492 -10.28145,0.44702 -9.38741,-5.61967 z"
       id="path21020" />
    <path
       style="fill:#393d3c;fill-opacity:1;stroke:#ffffff;stroke-width:9.33333333;stroke-linejoin:round;stroke-dasharray:none;stroke-opacity:1;paint-order:stroke fill markers"
       d="m 100.96835,259.28457 c 0,0 3.43184,-11.6502 4.33496,-18.42357 0.90312,-6.77337 4.33496,-10.65676 7.49586,-10.9277 3.16091,-0.27093 8.30867,-1.71592 6.68306,6.86368 -1.62561,8.5796 -4.6962,46.42016 -21.674781,65.38559 -16.978578,18.96543 -43.620497,6.14119 -44.704236,-6.05088 -1.083739,-12.19206 1.083739,-24.2035 14.720789,-25.55817 0,0 0.812804,9.12147 11.198637,9.30209 10.385832,0.18062 19.958852,-13.36611 21.945711,-20.59104 z"
       id="path19929" />
    <ellipse
       style="fill:#393d3c;fill-opacity:1;stroke:#ffffff;stroke-width:4.20304;stroke-linecap:butt;stroke-linejoin:round;stroke-dasharray:none;stroke-opacity:1"
       id="path1"
       cx="296.49106"
       cy="93.961777"
       rx="10.393678"
       ry="10.213058" />
  </g>
</svg>
